<?xml version="1.0" encoding="UTF-8" standalone="no"?>
<!-- Created with Inkscape (http://www.inkscape.org/) -->

<svg xmlns:dc="http://purl.org/dc/elements/1.1/" xmlns:cc="http://creativecommons.org/ns#" xmlns:rdf="http://www.w3.org/1999/02/22-rdf-syntax-ns#" xmlns:svg="http://www.w3.org/2000/svg" xmlns="http://www.w3.org/2000/svg" xmlns:sodipodi="http://sodipodi.sourceforge.net/DTD/sodipodi-0.dtd" xmlns:inkscape="http://www.inkscape.org/namespaces/inkscape" width="499.04663" height="341.00119" id="svg10852" version="1.1" inkscape:version="0.48.5 r10040" sodipodi:docname="generic-website.svg">
  <defs id="defs10854" />
  <sodipodi:namedview id="base" pagecolor="#ffffff" bordercolor="#666666" borderopacity="1.0" inkscape:pageopacity="0.0" inkscape:pageshadow="2" inkscape:zoom="1.65375" inkscape:cx="208.8316" inkscape:cy="217.95724" inkscape:document-units="px" inkscape:current-layer="layer1" showgrid="false" fit-margin-top="0" fit-margin-left="0" fit-margin-right="0" fit-margin-bottom="0" />
  <metadata id="metadata10857">
    <rdf:RDF>
      <cc:Work rdf:about="">
        <dc:format>image/svg+xml</dc:format>
        <dc:type rdf:resource="http://purl.org/dc/dcmitype/StillImage" />
        <dc:title></dc:title>
      </cc:Work>
    </rdf:RDF>
  </metadata>
  <g inkscape:label="Ebene 1" inkscape:groupmode="layer" id="layer1" transform="translate(-0.00593227,-711.35105)">
    <g style="font-size:16px;fill:#fefefe;stroke:#50a8f8;stroke-opacity:1;font-family:Times New Roman;fill-opacity:1" id="Document" font-size="16" transform="matrix(0.64132277,0,0,-0.64132277,-40.978601,681.29177)">
      <g style="stroke:#50a8f8;stroke-opacity:1;fill:#fefefe;fill-opacity:1" id="Spread" transform="translate(0,-595.277)">
        <g style="stroke:#50a8f8;stroke-opacity:1;fill:#fefefe;fill-opacity:1" id="Frame">
          <path style="stroke:#50a8f8;stroke-width:2.25000000000000000;stroke-linecap:round;stroke-linejoin:miter;stroke-miterlimit:79.84031677000000116;stroke-opacity:1;marker-start:none;marker-end:none;fill:#fefefe;fill-opacity:1" inkscape:connector-curvature="0" d="m 65.022,516.017 0,-403.657 c 0,-17.26 14.009,-31.269 31.27,-31.269 l 649.305,0 c 17.261,0 31.27,14.009 31.27,31.269 l 0,403.657 c 0,17.26 -14.009,31.269 -31.27,31.269 l -649.305,0 c -17.261,0 -31.27,-14.009 -31.27,-31.269 z" stroke-miterlimit="79.8403193612775" id="path9095" />
        </g>
        <g style="stroke:#50a8f8;stroke-opacity:1;fill:#fefefe;fill-opacity:1" id="Screen">
          <path style="stroke:#50a8f8;stroke-width:1.12500000000000000;stroke-linecap:round;stroke-linejoin:miter;stroke-miterlimit:79.84031677000000116;stroke-opacity:1;marker-start:none;marker-end:none;fill:#fefefe;fill-opacity:1" inkscape:connector-curvature="0" d="m 111.843,508.437 0,-388.497 618.203,0 0,388.497 -618.203,0 z" stroke-miterlimit="79.8403193612775" id="path9098" />
        </g>
      </g>
    </g>
    <rect style="fill:#f2f5f5;fill-opacity:1;stroke:#50a8f8;stroke-width:0.93021005;stroke-linecap:round;stroke-linejoin:round;stroke-miterlimit:4;stroke-opacity:1;stroke-dasharray:none;stroke-dashoffset:0" id="rect2987" width="399.09003" height="249.39925" x="30.679934" y="736.96771" />
    <rect style="fill:#50a8f8;fill-opacity:1;stroke:none" id="rect2987-8" width="162.38518" height="89.358376" x="53.720119" y="755.25726" />
    <rect style="fill:#50a8f8;fill-opacity:1;stroke:none" id="rect2987-8-5" width="162.38518" height="11.914457" x="53.720119" y="852.06219" />
    <rect style="fill:#50a8f8;fill-opacity:1;stroke:none" id="rect2987-8-5-5" width="162.38518" height="11.914457" x="53.720119" y="874.40173" />
    <rect style="fill:#50a8f8;fill-opacity:1;stroke:none" id="rect2987-8-5-5-6" width="162.38518" height="11.914457" x="53.720119" y="896.74133" />
    <rect style="fill:#50a8f8;fill-opacity:1;stroke:none" id="rect2987-8-5-9" width="162.38516" height="11.914457" x="241.74512" y="755.25726" />
    <rect style="fill:#50a8f8;fill-opacity:1;stroke:none" id="rect2987-8-5-5-61" width="162.38518" height="11.914457" x="241.74512" y="777.5968" />
    <rect style="fill:#50a8f8;fill-opacity:1;stroke:none" id="rect2987-8-5-5-6-3" width="162.38518" height="11.914457" x="241.74512" y="799.93646" />
    <rect style="fill:#50a8f8;fill-opacity:1;stroke:none" id="rect2987-8-5-9-2" width="162.38518" height="11.914457" x="241.74512" y="822.276" />
    <rect style="fill:#50a8f8;fill-opacity:1;stroke:none" id="rect2987-8-5-9-2-9" width="162.38516" height="11.914457" x="241.74512" y="889.2948" />
    <rect style="fill:#50a8f8;fill-opacity:1;stroke:none" id="rect2987-8-5-5-61-5-6" width="162.38518" height="11.914457" x="241.74512" y="911.63434" />
    <rect style="fill:#50a8f8;fill-opacity:1;stroke:none" id="rect2987-8-5-5-6-3-2-6" width="162.38518" height="11.914457" x="241.74512" y="933.974" />
    <path sodipodi:type="arc" style="fill:#50a8f8;fill-opacity:1;fill-rule:nonzero;stroke:none" id="path4074-5" sodipodi:cx="215" sodipodi:cy="274.86218" sodipodi:rx="16.113668" sodipodi:ry="17.757843" d="m 231.11367,274.86218 a 16.113668,17.757843 0 1 1 -32.22734,0 16.113668,17.757843 0 1 1 32.22734,0 z" transform="matrix(1.0607874,0,0,0.78726517,39.315547,643.11924)" />
    <path sodipodi:type="arc" style="fill:#50a8f8;fill-opacity:1;fill-rule:nonzero;stroke:none" id="path4074-5-9" sodipodi:cx="215" sodipodi:cy="274.86218" sodipodi:rx="16.113668" sodipodi:ry="17.757843" d="m 231.11367,274.86218 a 16.113668,17.757843 0 1 1 -32.22734,0 16.113668,17.757843 0 1 1 32.22734,0 z" transform="matrix(1.0607874,0,0,0.78726517,90.595077,643.11924)" />
    <path sodipodi:type="arc" style="fill:#50a8f8;fill-opacity:1;fill-rule:nonzero;stroke:none" id="path4074-5-8" sodipodi:cx="215" sodipodi:cy="274.86218" sodipodi:rx="16.113668" sodipodi:ry="17.757843" d="m 231.11367,274.86218 a 16.113668,17.757843 0 1 1 -32.22734,0 16.113668,17.757843 0 1 1 32.22734,0 z" transform="matrix(1.0607874,0,0,0.78726517,141.87461,643.11924)" />
    <g id="g3113" transform="matrix(1.0455196,0,0,0.91094758,98.396127,770.65994)" style="fill:#f2f5f5;fill-opacity:1">
      <path style="fill:#f2f5f5;fill-opacity:1;stroke:none" d="M 20.240174,2.5007393 C 25.762364,2.8843473 56.571472,19.284417 60.68651,31.421517 51.71139,47.818646 23.826795,60.256206 20.240174,61.357066 31.385269,53.491556 47.01084,43.266226 51.951556,31.421517 51.055496,23.863997 29.577914,10.058256 20.240174,2.5007393 z" id="path2989-1-1" inkscape:connector-curvature="0" sodipodi:nodetypes="ccccc" />
      <path style="fill:#f2f5f5;fill-opacity:1;stroke:none" d="M 23.570615,2.5007393 C 29.092806,2.8843473 59.901913,19.284417 64.016991,31.421517 55.041831,47.818646 27.15724,60.256206 23.570615,61.357066 34.71571,53.491556 50.341282,43.266226 55.281997,31.421517 54.385947,23.863997 32.908354,10.058256 23.570615,2.5007393 z" id="path2989-0" inkscape:connector-curvature="0" sodipodi:nodetypes="ccccc" />
      <path style="fill:#f2f5f5;fill-opacity:1;stroke:none" d="M 0.0169907,2.5007393 C 5.5391817,2.8843473 36.348279,19.284417 40.463367,31.421517 31.488197,47.818646 3.6036117,60.256206 0.0169907,61.357066 11.162086,53.491556 26.787656,43.266226 31.728373,31.421517 30.832314,23.863997 9.3547297,10.058256 0.0169907,2.5007393 z" id="path2989-2-7-0" inkscape:connector-curvature="0" sodipodi:nodetypes="ccccc" />
      <path style="fill:#f2f5f5;fill-opacity:1;stroke:none" d="M 3.3474317,2.5007393 C 8.8696227,2.8843473 39.678731,19.284417 43.793808,31.421517 34.818639,47.818646 6.9340527,60.256206 3.3474317,61.357066 14.492527,53.491556 30.118099,43.266226 35.058815,31.421517 34.162754,23.863997 12.685171,10.058256 3.3474317,2.5007393 z" id="path2989-2-0" inkscape:connector-curvature="0" sodipodi:nodetypes="ccccc" />
    </g>
    <path d="m 358.98579,783.03926 0,248.39554 c 0,11.1442 9.04582,20.19 20.19004,20.19 l 98.96056,0 c 11.14487,0 20.19069,-9.0458 20.19069,-20.19 l 0,-248.39554 c 0,-11.14487 -9.04582,-20.19067 -20.19069,-20.19067 l -98.96056,0 c -11.14422,0 -20.19004,9.0458 -20.19004,20.19067 z" stroke-miterlimit="79.8403193612775" id="path7383" inkscape:connector-curvature="0" style="fill:#fbfbfb;stroke:#50a8f8;stroke-width:1.47471309000000006;stroke-linecap:round;stroke-linejoin:miter;stroke-miterlimit:79.84031677000000116;stroke-opacity:1;marker-start:none;marker-end:none;fill-opacity:1" />
    <path d="m 427.47219,770.29663 c 0.67292,-0.5939 1.70205,-0.52979 2.2966,0.14377 0.59389,0.67292 0.52977,1.70205 -0.14377,2.2966 -0.67292,0.5939 -1.70205,0.52978 -2.2966,-0.14378 -0.59389,-0.67291 -0.52977,-1.70204 0.14377,-2.29659 z" id="path7385" inkscape:connector-curvature="0" style="fill:#50a8f8;fill-opacity:1;stroke:#50a8f8;stroke-width:0.64765614;stroke-linejoin:miter;stroke-opacity:1;marker-start:none;marker-end:none" />
    <path d="m 418.66214,779.66044 0,5.2e-4 c 0,0.50906 0.50062,0.92226 1.11719,0.92226 l 17.38892,0 c 0.61657,0 1.11721,-0.4132 1.11721,-0.92226 l 0,-5.2e-4 c 0,-0.50905 -0.50064,-0.92225 -1.11721,-0.92225 l -17.38892,0 c -0.61657,0 -1.11719,0.4132 -1.11719,0.92225 z" id="path7387" inkscape:connector-curvature="0" style="fill:#50a8f8;fill-opacity:1;stroke:#50a8f8;stroke-width:0.64765614;stroke-linejoin:miter;stroke-opacity:1;marker-start:none;marker-end:none" />
    <path d="m 420.66598,1027.1486 c 2.89307,-4.4105 8.82171,-5.6436 13.23291,-2.7512 4.41054,2.8931 5.64368,8.8217 2.75123,13.2329 -2.89307,4.4105 -8.82172,5.6437 -13.2329,2.7512 -4.41053,-2.8931 -5.64367,-8.8217 -2.75124,-13.2329 z" stroke-miterlimit="79.8403193612775" id="path7391" inkscape:connector-curvature="0" style="fill:#eef1f1;fill-opacity:1;stroke:#50a8f8;stroke-width:0.44493976;stroke-linejoin:miter;stroke-miterlimit:79.84031677;stroke-opacity:1;marker-start:none;marker-end:none" />
    <path d="m 366.00055,794.98787 0,221.90963 c 0,0.3355 0.27267,0.6082 0.60816,0.6082 l 124.09803,0 c 0.3355,0 0.60816,-0.2727 0.60816,-0.6082 l 0,-221.90963 c 0,-0.33548 -0.27266,-0.60814 -0.60816,-0.60814 l -124.09803,0 c -0.33549,0 -0.60816,0.27266 -0.60816,0.60814 z" stroke-miterlimit="79.8403193612775" id="path7393" inkscape:connector-curvature="0" style="stroke:#000000;stroke-width:0.48574212;stroke-linecap:round;stroke-linejoin:miter;stroke-miterlimit:79.84031677;marker-start:none;marker-end:none" />
    <rect y="794.50543" x="364.65988" height="225.18199" width="127.91683" id="rect2987-1" style="fill:#f2f5f5;fill-opacity:1;stroke:#50a8f8;stroke-width:1.54401886;stroke-linecap:round;stroke-linejoin:round;stroke-miterlimit:4;stroke-opacity:1;stroke-dasharray:none;stroke-dashoffset:0" />
    <rect y="806.78601" x="380.36679" height="60" width="95.000008" id="rect2987-8-3" style="fill:#50a8f8;fill-opacity:1;stroke:none" />
    <rect y="871.78601" x="380.36679" height="8.0000048" width="95.000008" id="rect2987-8-5-59" style="fill:#50a8f8;fill-opacity:1;stroke:none" />
    <rect y="886.78601" x="380.36679" height="8.0000048" width="95.000008" id="rect2987-8-5-5-8" style="fill:#50a8f8;fill-opacity:1;stroke:none" />
    <rect y="901.78601" x="380.36679" height="8.0000048" width="95.000008" id="rect2987-8-5-5-6-8" style="fill:#50a8f8;fill-opacity:1;stroke:none" />
    <path transform="matrix(0.62059115,0,0,0.52861202,261.93967,781.4905)" d="m 231.11367,274.86218 a 16.113668,17.757843 0 1 1 -32.22734,0 16.113668,17.757843 0 1 1 32.22734,0 z" sodipodi:ry="17.757843" sodipodi:rx="16.113668" sodipodi:cy="274.86218" sodipodi:cx="215" id="path4074-5-5" style="fill:#50a8f8;fill-opacity:1;fill-rule:nonzero;stroke:none" sodipodi:type="arc" />
    <path transform="matrix(0.62059115,0,0,0.52861202,291.93967,781.4905)" d="m 231.11367,274.86218 a 16.113668,17.757843 0 1 1 -32.22734,0 16.113668,17.757843 0 1 1 32.22734,0 z" sodipodi:ry="17.757843" sodipodi:rx="16.113668" sodipodi:cy="274.86218" sodipodi:cx="215" id="path4074-5-9-3" style="fill:#50a8f8;fill-opacity:1;fill-rule:nonzero;stroke:none" sodipodi:type="arc" />
    <path transform="matrix(0.62059115,0,0,0.52861202,321.93967,781.4905)" d="m 231.11367,274.86218 a 16.113668,17.757843 0 1 1 -32.22734,0 16.113668,17.757843 0 1 1 32.22734,0 z" sodipodi:ry="17.757843" sodipodi:rx="16.113668" sodipodi:cy="274.86218" sodipodi:cx="215" id="path4074-5-8-6" style="fill:#50a8f8;fill-opacity:1;fill-rule:nonzero;stroke:none" sodipodi:type="arc" />
    <path style="fill:#f2f5f5;fill-opacity:1;stroke:none" d="m 418.88357,818.65772 c 3.3777,0.23464 22.22237,10.26589 24.73937,17.68965 -5.48971,10.02946 -22.54558,17.637 -24.73937,18.31035 6.817,-4.81101 16.37452,-11.06542 19.39656,-18.31035 -0.54809,-4.62262 -13.68504,-13.06703 -19.39656,-17.68965 z" id="path2989-1-1-3" inkscape:connector-curvature="0" sodipodi:nodetypes="ccccc" />
    <path style="fill:#f2f5f5;fill-opacity:1;stroke:none" d="m 420.92067,818.65772 c 3.3777,0.23464 22.22236,10.26589 24.73939,17.68965 -5.48974,10.02946 -22.5456,17.637 -24.73939,18.31035 6.817,-4.81101 16.37452,-11.06542 19.39655,-18.31035 -0.54808,-4.62262 -13.68504,-13.06703 -19.39655,-17.68965 z" id="path2989-0-3" inkscape:connector-curvature="0" sodipodi:nodetypes="ccccc" />
    <path style="fill:#f2f5f5;fill-opacity:1;stroke:none" d="m 406.51388,818.65772 c 3.3777,0.23464 22.22236,10.26589 24.73939,17.68965 -5.48974,10.02946 -22.5456,17.637 -24.73939,18.31035 6.817,-4.81101 16.37452,-11.06542 19.39655,-18.31035 -0.54808,-4.62262 -13.68504,-13.06703 -19.39655,-17.68965 z" id="path2989-2-7-0-7" inkscape:connector-curvature="0" sodipodi:nodetypes="ccccc" />
    <path style="fill:#f2f5f5;fill-opacity:1;stroke:none" d="m 408.55098,818.65772 c 3.37769,0.23464 22.22236,10.26589 24.73939,17.68965 -5.48975,10.02946 -22.5456,17.637 -24.73939,18.31035 6.81699,-4.81101 16.37452,-11.06542 19.39655,-18.31035 -0.54808,-4.62262 -13.68504,-13.06703 -19.39655,-17.68965 z" id="path2989-2-0-5" inkscape:connector-curvature="0" sodipodi:nodetypes="ccccc" />
    <rect y="942.39899" x="380.36679" height="8.0000048" width="95.000008" id="rect2987-8-5-59-8" style="fill:#50a8f8;fill-opacity:1;stroke:none" />
    <rect y="957.39899" x="380.36679" height="8.0000048" width="95.000008" id="rect2987-8-5-5-8-9" style="fill:#50a8f8;fill-opacity:1;stroke:none" />
    <rect y="972.39899" x="380.36679" height="8.0000048" width="95.000008" id="rect2987-8-5-5-6-8-3" style="fill:#50a8f8;fill-opacity:1;stroke:none" />
    <rect y="987.39899" x="380.36679" height="8.0000048" width="95.000008" id="rect2987-8-5-5-8-9-6" style="fill:#50a8f8;fill-opacity:1;stroke:none" />
    <rect y="1002.399" x="380.36679" height="8.0000048" width="95.000008" id="rect2987-8-5-5-6-8-3-7" style="fill:#50a8f8;fill-opacity:1;stroke:none" />
  </g>
</svg>
