<?xml version="1.0" encoding="UTF-8" standalone="no"?>
<!-- Created with Inkscape (http://www.inkscape.org/) -->

<svg xmlns:dc="http://purl.org/dc/elements/1.1/" xmlns:cc="http://creativecommons.org/ns#" xmlns:rdf="http://www.w3.org/1999/02/22-rdf-syntax-ns#" xmlns:svg="http://www.w3.org/2000/svg" xmlns="http://www.w3.org/2000/svg" xmlns:sodipodi="http://sodipodi.sourceforge.net/DTD/sodipodi-0.dtd" xmlns:inkscape="http://www.inkscape.org/namespaces/inkscape" width="1024" height="1024" id="svg4456" version="1.1" inkscape:version="0.48.5 r10040" sodipodi:docname="icon.svg">
  <defs id="defs4458" />
  <sodipodi:namedview id="base" pagecolor="#ffffff" bordercolor="#666666" borderopacity="1.0" inkscape:pageopacity="0.0" inkscape:pageshadow="2" inkscape:zoom="0.28538868" inkscape:cx="1022.3321" inkscape:cy="497.21664" inkscape:current-layer="layer1" showgrid="false" inkscape:document-units="px" inkscape:grid-bbox="true" showborder="true" borderlayer="true" inkscape:snap-global="false">
    <inkscape:grid type="xygrid" id="grid3077" empspacing="5" visible="true" enabled="true" snapvisiblegridlinesonly="true" />
  </sodipodi:namedview>
  <metadata id="metadata4461">
    <rdf:RDF>
      <cc:Work rdf:about="">
        <dc:format>image/svg+xml</dc:format>
        <dc:type rdf:resource="http://purl.org/dc/dcmitype/StillImage" />
        <dc:title></dc:title>
      </cc:Work>
    </rdf:RDF>
  </metadata>
  <g id="layer1" inkscape:label="Layer 1" inkscape:groupmode="layer" transform="translate(0,960)">
    <path sodipodi:nodetypes="ccccc" inkscape:connector-curvature="0" id="path2989-1-1" d="m 323.0458,-959.16961 c 88.42342,6.66992 581.75069,291.8239 647.64224,502.85603 C 826.97499,-171.21076 380.47615,45.045586 323.0458,64.186638 501.50533,-72.57383 751.70797,-250.36534 830.82062,-456.31358 816.47256,-587.71893 472.56527,-827.76434 323.0458,-959.16961 z" style="fill:#aad6ff;fill-opacity:1;stroke:none" />
    <path sodipodi:nodetypes="ccccc" inkscape:connector-curvature="0" id="path2989-0" d="m 376.3741,-959.16961 c 88.42344,6.66992 581.75068,291.8239 647.6429,502.85603 C 880.30329,-171.21076 433.80452,45.045586 376.3741,64.186638 554.83364,-72.57383 805.03629,-250.36534 884.14892,-456.31358 869.80102,-587.71893 525.89356,-827.76434 376.3741,-959.16961 z" style="fill:#50a8f8;fill-opacity:1;stroke:none" />
    <path sodipodi:nodetypes="ccccc" inkscape:connector-curvature="0" id="path2989-2-7-0" d="M -0.77557266,-959.16961 C 87.647869,-952.49969 580.97495,-667.34571 646.86733,-456.31358 503.15346,-171.21076 56.654779,45.045586 -0.77557266,64.186638 177.68397,-72.57383 427.88659,-250.36534 506.99925,-456.31358 492.65121,-587.71893 148.74388,-827.76434 -0.77557266,-959.16961 z" style="fill:#aad6ff;fill-opacity:1;stroke:none" />
    <path sodipodi:nodetypes="ccccc" inkscape:connector-curvature="0" id="path2989-2-0" d="m 52.552726,-959.16961 c 88.423434,6.66992 581.750704,291.8239 647.642894,502.85603 C 556.48177,-171.21076 109.98307,45.045586 52.552726,64.186638 231.01227,-72.57383 481.21493,-250.36534 560.32757,-456.31358 545.97949,-587.71893 202.07218,-827.76434 52.552726,-959.16961 z" style="fill:#50a8f8;fill-opacity:1;stroke:none" />
  </g>
</svg>
