<?xml version="1.0" encoding="UTF-8" standalone="no"?>
<!-- Created with Inkscape (http://www.inkscape.org/) -->

<svg xmlns:dc="http://purl.org/dc/elements/1.1/" xmlns:cc="http://creativecommons.org/ns#" xmlns:rdf="http://www.w3.org/1999/02/22-rdf-syntax-ns#" xmlns:svg="http://www.w3.org/2000/svg" xmlns="http://www.w3.org/2000/svg" xmlns:sodipodi="http://sodipodi.sourceforge.net/DTD/sodipodi-0.dtd" xmlns:inkscape="http://www.inkscape.org/namespaces/inkscape" width="64px" height="64px" id="svg4456" version="1.1" inkscape:version="0.48.5 r10040" sodipodi:docname="icon.svg" inkscape:export-filename="/home/andreas/src/js/boomerang/boomerang-express/master/docs/assets/img/icon-16x16.png" inkscape:export-xdpi="22.5" inkscape:export-ydpi="22.5">
  <defs id="defs4458" />
  <sodipodi:namedview id="base" pagecolor="#ffffff" bordercolor="#666666" borderopacity="1.0" inkscape:pageopacity="0.0" inkscape:pageshadow="2" inkscape:zoom="6.3316649" inkscape:cx="97.157174" inkscape:cy="12.097924" inkscape:current-layer="layer1" showgrid="true" inkscape:document-units="px" inkscape:grid-bbox="true" />
  <metadata id="metadata4461">
    <rdf:RDF>
      <cc:Work rdf:about="">
        <dc:format>image/svg+xml</dc:format>
        <dc:type rdf:resource="http://purl.org/dc/dcmitype/StillImage" />
        <dc:title></dc:title>
      </cc:Work>
    </rdf:RDF>
  </metadata>
  <g id="layer1" inkscape:label="Layer 1" inkscape:groupmode="layer">
    <path sodipodi:nodetypes="ccccc" inkscape:connector-curvature="0" id="path2989-1-1" d="M 20.240174,2.5007393 C 25.762364,2.8843473 56.571472,19.284417 60.68651,31.421517 51.71139,47.818646 23.826795,60.256206 20.240174,61.357066 31.385269,53.491556 47.01084,43.266226 51.951556,31.421517 51.055496,23.863997 29.577914,10.058256 20.240174,2.5007393 z" style="fill:#aad6ff;fill-opacity:1;stroke:none" />
    <path sodipodi:nodetypes="ccccc" inkscape:connector-curvature="0" id="path2989-0" d="M 23.570615,2.5007393 C 29.092806,2.8843473 59.901913,19.284417 64.016991,31.421517 55.041831,47.818646 27.15724,60.256206 23.570615,61.357066 34.71571,53.491556 50.341282,43.266226 55.281997,31.421517 54.385947,23.863997 32.908354,10.058256 23.570615,2.5007393 z" style="fill:#50a8f8;fill-opacity:1;stroke:none" />
    <path sodipodi:nodetypes="ccccc" inkscape:connector-curvature="0" id="path2989-2-7-0" d="M 0.0169907,2.5007393 C 5.5391817,2.8843473 36.348279,19.284417 40.463367,31.421517 31.488197,47.818646 3.6036117,60.256206 0.0169907,61.357066 11.162086,53.491556 26.787656,43.266226 31.728373,31.421517 30.832314,23.863997 9.3547297,10.058256 0.0169907,2.5007393 z" style="fill:#aad6ff;fill-opacity:1;stroke:none" />
    <path sodipodi:nodetypes="ccccc" inkscape:connector-curvature="0" id="path2989-2-0" d="M 3.3474317,2.5007393 C 8.8696227,2.8843473 39.678731,19.284417 43.793808,31.421517 34.818639,47.818646 6.9340527,60.256206 3.3474317,61.357066 14.492527,53.491556 30.118099,43.266226 35.058815,31.421517 34.162754,23.863997 12.685171,10.058256 3.3474317,2.5007393 z" style="fill:#50a8f8;fill-opacity:1;stroke:none" />
  </g>
</svg>
